<?xml version="1.0" encoding="utf-8"?>
<!-- Generator: Adobe Illustrator 16.0.0, SVG Export Plug-In . SVG Version: 6.00 Build 0)  -->
<!DOCTYPE svg PUBLIC "-//W3C//DTD SVG 1.0//EN" "http://www.w3.org/TR/2001/REC-SVG-20010904/DTD/svg10.dtd">
<svg version="1.0" id="Layer_1" xmlns="http://www.w3.org/2000/svg" xmlns:xlink="http://www.w3.org/1999/xlink" x="0px" y="0px"
	 width="100px" height="100px" viewBox="0 0 100 100" enable-background="new 0 0 100 100" xml:space="preserve">
<path d="M73.333,10h-40c5.524,5.521,5.521,14.479,0,20h40c5.521,0,10-4.476,10-10C83.333,14.476,78.854,10,73.333,10z"/>
<path d="M71.667,66.667h-20v14.756L40,75.589l-11.667,5.834V66.667H10c6.445,6.441,6.438,16.891,0,23.333h61.667
	c6.441,0,11.666-5.222,11.666-11.667S78.108,66.667,71.667,66.667z"/>
<path d="M90,36.667H28.333c-6.441,0-11.666,5.221-11.666,11.666S21.892,60,28.333,60V46.667h5v26.666L40,70l6.667,3.333V46.667h5V60
	H90C83.555,53.558,83.562,43.108,90,36.667z"/>
</svg>
