<?xml version="1.0" encoding="UTF-8" standalone="no"?> <svg id="Picture" xmlns="http://www.w3.org/2000/svg" viewBox="0 0 32 32"><title>Picture</title><path d="M24,3H8A5.006,5.006,0,0,0,3,8V19.757l4.469-4.468a5,5,0,0,1,7.063,0L18,18.757l1.469-1.468a5,5,0,0,1,7.063,0L29,19.757V8A5.006,5.006,0,0,0,24,3ZM20.5,13a3,3,0,1,1,3-3A3,3,0,0,1,20.5,13Z"/><path d="M25.117,18.7a3,3,0,0,0-4.234,0l-2.18,2.18a1,1,0,0,1-1.406,0l-4.18-4.18a3,3,0,0,0-4.234,0L3,22.586V24a5.006,5.006,0,0,0,5,5H24a5.006,5.006,0,0,0,5-5V22.586Z"/></svg>