<?xml version="1.0" encoding="UTF-8" standalone="no"?> <svg id="Layer_1" data-name="Layer 1" xmlns="http://www.w3.org/2000/svg" viewBox="0 0 48 48"><path d="M44.7,14.708A8.611,8.611,0,0,0,29.033,12H18.967A8.611,8.611,0,0,0,3.3,14.708c-1.9,8.4-5.264,23.221,3.136,25.125,4.518,1.024,7.577-2.8,9.736-7.85.111.006.22.017.332.017a6.476,6.476,0,0,0,4.684-2h5.632A6.476,6.476,0,0,0,31.5,32c.112,0,.221-.011.332-.017,2.159,5.054,5.218,8.874,9.736,7.85C49.968,37.929,46.608,23.107,44.7,14.708ZM36.5,12A1.5,1.5,0,1,1,35,13.5,1.5,1.5,0,0,1,36.5,12Zm-3,3A1.5,1.5,0,1,1,32,16.5,1.5,1.5,0,0,1,33.5,15Zm-22,6A1.5,1.5,0,0,1,10,19.5V18H8.5a1.5,1.5,0,0,1,0-3H10V13.5a1.5,1.5,0,0,1,3,0V15h1.5a1.5,1.5,0,1,1,0,3H13v1.5A1.5,1.5,0,0,1,11.5,21Zm5,8A3.5,3.5,0,1,1,20,25.5,3.5,3.5,0,0,1,16.5,29Zm15,0A3.5,3.5,0,1,1,35,25.5,3.5,3.5,0,0,1,31.5,29Zm5-8A1.5,1.5,0,1,1,38,19.5,1.5,1.5,0,0,1,36.5,21Zm3-3A1.5,1.5,0,1,1,41,16.5,1.5,1.5,0,0,1,39.5,18Z"/></svg>