<?xml version="1.0" encoding="iso-8859-1"?>
<!-- Generator: Adobe Illustrator 17.1.0, SVG Export Plug-In . SVG Version: 6.00 Build 0)  -->
<!DOCTYPE svg PUBLIC "-//W3C//DTD SVG 1.1//EN" "http://www.w3.org/Graphics/SVG/1.1/DTD/svg11.dtd">
<svg version="1.1" id="Layer_1" xmlns="http://www.w3.org/2000/svg" xmlns:xlink="http://www.w3.org/1999/xlink" x="0px" y="0px"
	 viewBox="0 0 32 32" style="enable-background:new 0 0 32 32;" xml:space="preserve">
<g>
	<path d="M28.007,4.471c-0.27,0-0.556,0.047-0.853,0.146l-0.303,0.101c-0.729,0.243-1.672,0.363-2.626,0.363
		c-1.094,0-2.204-0.157-3.029-0.466L18.809,3.72C18.037,3.431,17.018,3.286,16,3.286c-1.018,0-2.037,0.145-2.809,0.434l-2.387,0.895
		C9.979,4.924,8.869,5.081,7.775,5.081c-0.955,0-1.897-0.12-2.626-0.363L4.846,4.617C4.549,4.518,4.262,4.471,3.993,4.471
		C2.841,4.471,2,5.33,2,6.667v11c0,1.65,1.136,3.73,2.524,4.622l8.953,5.755c0.694,0.446,1.609,0.669,2.523,0.669
		s1.83-0.223,2.524-0.669l8.953-5.755C28.864,21.397,30,19.317,30,17.667v-11C30,5.33,29.159,4.471,28.007,4.471z M28,17.667
		c0,0.963-0.795,2.419-1.605,2.94l-8.953,5.755c-0.342,0.22-0.881,0.352-1.442,0.352c-0.56,0-1.1-0.131-1.442-0.352l-8.953-5.755
		C4.795,20.087,4,18.63,4,17.667v-11c0-0.089,0.01-0.153,0.021-0.196c0.04,0.003,0.104,0.013,0.192,0.042l0.303,0.101
		C5.67,7,6.925,7.081,7.775,7.081c1.384,0,2.709-0.211,3.73-0.594l2.387-0.895C14.406,5.401,15.194,5.286,16,5.286
		c0.807,0,1.594,0.115,2.107,0.307l2.387,0.895c1.022,0.383,2.346,0.594,3.73,0.594c0.85,0,2.105-0.081,3.259-0.466l0.303-0.101
		c0.08-0.027,0.141-0.037,0.193-0.04C27.99,6.516,28,6.58,28,6.667V17.667z"/>
	<path d="M20.003,9.989c-0.983,0-1.882,0.355-2.578,0.942C16.554,11.665,16,12.763,16,13.992c0-1.228-0.554-2.327-1.424-3.061
		c-0.697-0.587-1.596-0.942-2.578-0.942c-2.211,0-4.003,1.792-4.003,4.003c0,0.982,0.327,1.906,0.942,2.579
		c1.693,1.854,5.638,5.736,5.638,5.736c0.784,0.772,2.067,0.772,2.851,0c0,0,3.945-3.882,5.638-5.736
		c0.615-0.673,0.942-1.596,0.942-2.579C24.006,11.781,22.214,9.989,20.003,9.989z"/>
</g>
</svg>
