<?xml version="1.0" encoding="UTF-8" standalone="no"?> <svg xmlns="http://www.w3.org/2000/svg" viewBox="0 0 48 48"><title>Art</title><g id="_21_-_30" data-name="21 - 30"><g id="Art"><path d="M45.936,18.9a23.027,23.027,0,0,0-1.082-2.1L39.748,30.67a4.783,4.783,0,0,1-.837,1.42,8.943,8.943,0,0,0,7.464-12.115C46.239,19.609,46.093,19.253,45.936,18.9Z"/><path d="M16.63,6.4A23.508,23.508,0,0,0,2.683,37.268c.031.063.052.125.083.188a8.935,8.935,0,0,0,15.662,1.526A16.713,16.713,0,0,1,26.165,32.7c.1-.04.2-.07.3-.107a6.186,6.186,0,0,1,3.859-3.453,4.865,4.865,0,0,1,.451-2.184l7.9-17.107A23.554,23.554,0,0,0,16.63,6.4ZM10.5,32.5a4,4,0,1,1,4-4A4,4,0,0,1,10.5,32.5Zm5-11.5a4,4,0,1,1,4-4A4,4,0,0,1,15.5,21Zm12-3.5a4,4,0,1,1,4-4A4,4,0,0,1,27.5,17.5Z"/><path d="M45.478,4.151a1.858,1.858,0,0,0-2.4.938L32.594,27.794a2.857,2.857,0,0,0,.535,3.18,4.224,4.224,0,0,0-4.865,2.491c-1.619,3.91.942,5.625-.678,9.535a10.526,10.526,0,0,0,8.5-6.3,4.219,4.219,0,0,0-1.25-4.887,2.85,2.85,0,0,0,3.037-1.837l8.64-23.471A1.859,1.859,0,0,0,45.478,4.151Z"/></g></g></svg>