<?xml version="1.0" encoding="UTF-8" standalone="no"?> <svg id="object" xmlns="http://www.w3.org/2000/svg" viewBox="0 0 100 100"><g id="_32" data-name="32"><path d="M83.633,17.958H16.367a4.975,4.975,0,0,0-4.969,4.97V65.6a1,1,0,0,0,1,1H87.6a1,1,0,0,0,1-1V22.928A4.975,4.975,0,0,0,83.633,17.958ZM94.456,75.742,91.94,68.759V22.928a8.317,8.317,0,0,0-8.307-8.308H16.367A8.317,8.317,0,0,0,8.06,22.928V68.759L5.544,75.742a7.2,7.2,0,0,0,6.773,9.638H87.683a7.2,7.2,0,0,0,6.773-9.638ZM16.7,81.477a4.82,4.82,0,1,1,4.821-4.82A4.826,4.826,0,0,1,16.7,81.477Zm10.68-1.468a3.352,3.352,0,1,1,3.351-3.352A3.356,3.356,0,0,1,27.379,80.009Zm11.41-2.352H35.8a1,1,0,1,1,0-2h2.99a1,1,0,0,1,0,2Zm17.772,0H43.439a1,1,0,0,1,0-2H56.561a1,1,0,0,1,0,2Zm7.64,0h-2.99a1,1,0,0,1,0-2H64.2a1,1,0,0,1,0,2Zm8.42,2.352a3.352,3.352,0,1,1,3.352-3.352A3.355,3.355,0,0,1,72.621,80.009ZM83.3,81.477a4.82,4.82,0,1,1,4.82-4.82A4.826,4.826,0,0,1,83.3,81.477ZM89.94,67.934H10.06V22.928a6.314,6.314,0,0,1,6.307-6.308H83.633a6.314,6.314,0,0,1,6.307,6.308Z"/></g></svg>